PathFileType	4	(X/Y/Z)	T1_P1_Vision_NoMovement_1_0-649.trc
DataRate	CameraRate	NumFrames	NumMarkers	Units	OrigDataRate	OrigDataStartFrame	OrigNumFrames
60	60	4	27	m	60	162	649
Frame#	Time	RHip			RKnee			RAnkle			RBigToe			RSmallToe			RHeel			LHip			LKnee			LAnkle			LBigToe			LSmallToe			LHeel			Neck			Head			Nose			RShoulder			RElbow			RWrist			RThumb			RIndex			RPinky			LShoulder			LElbow			LWrist			LThumb			LIndex			LPinky		
		X1	Y1	Z1	X2	Y2	Z2	X3	Y3	Z3	X4	Y4	Z4	X5	Y5	Z5	X6	Y6	Z6	X7	Y7	Z7	X8	Y8	Z8	X9	Y9	Z9	X10	Y10	Z10	X11	Y11	Z11	X12	Y12	Z12	X13	Y13	Z13	X14	Y14	Z14	X15	Y15	Z15	X16	Y16	Z16	X17	Y17	Z17	X18	Y18	Z18	X19	Y19	Z19	X20	Y20	Z20	X21	Y21	Z21	X22	Y22	Z22	X23	Y23	Z23	X24	Y24	Z24	X25	Y25	Z25	X26	Y26	Z26	X27	Y27	Z27
163	2.716666666666667	-65.0547171978416	3762.2844744114495	-545.6517097776159	285.8295088329908	3928.4751053632003	-506.3733646396888	629.2706440321548	4122.253549957863	-526.1049454755895	683.4055918285775	3979.176942102501	-449.0872450298703	684.0703913970983	3936.7047001527794	-497.2349980649861	675.8208880425758	4164.7960376398505	-525.8560652685472	-101.95970362319088	3905.400822830063	-363.9739898788044	234.6219694870884	3972.5886496627836	-371.1808397758097	627.0512461990199	4256.364397304335	-458.1317119166776	661.298013392438	3965.899574865088	-346.2830904376057	676.5355257072048	4123.641481451834	-345.43864294108795	676.7986971843309	4323.080267890887	-495.4051900219113	-677.6874270278971	3680.042726097311	-512.5736390905504	-916.3813311120044	3540.2915740286517	-431.88648520867565	-783.1914740512307	3576.8575702504186	-408.6957317427884	-562.15363737061	3687.8390638239266	-680.7744523833954	-289.0150466042911	3693.0809452227863	-695.7015695849984	-25.82773611369161	3642.5550095485805	-614.3501549346647	91.5525777092415	3742.0304367085805	-561.5237291208772	117.67960442914436	3693.003431578421	-554.9828039350159	95.65197510944442	3626.4694557284115	-579.9397746066587	-619.0626571177028	3790.1435330853187	-384.1106504756345	-397.1194492944854	3978.6020188852917	-345.39253582420594	-127.10665040537178	3940.2882268001144	-242.33486464198262	13.10962428414704	3850.2523570026055	-247.52292401062888	20.92971479728709	3876.3614255944553	-202.64762084164025	-1.0654461614815858	3975.6081546003106	-215.40261400494754
164	2.7333333333333334	-65.03939738525902	3762.1744571434315	-545.6589587491653	286.70692907827197	3929.4462174747296	-512.6989545185365	645.4146225987748	4155.324901921305	-531.1870697311292	694.713134971602	4012.688142129522	-455.16984133963854	689.5512430734365	3964.408628642499	-502.9028775163042	676.171547403993	4165.958937436396	-526.0680093528483	-101.97009087131384	3905.512361407308	-364.0781292707282	234.74530086409212	3972.616239285528	-371.2085060893742	620.6065749221351	4252.440292388641	-455.8711804899286	670.448859899895	3996.127803594498	-349.84132397739836	675.1029326016604	4123.057780545877	-342.64153185792503	670.7323762534128	4319.153600241861	-492.9511820098423	-677.7001179007322	3679.933832397898	-512.5058238120276	-916.5788106570203	3540.33737644272	-432.05021750752735	-788.0676872364878	3575.5270257916036	-408.6383582139781	-560.4194724451027	3670.7074267759995	-666.1777060651286	-289.1451824868265	3693.07362994559	-695.7761007538816	-20.933845882248573	3643.093739848583	-614.1612523744336	91.73349756596288	3741.6955554029596	-561.4446400004721	117.65141861077004	3692.709873656091	-554.8560379199	100.62459642591497	3651.4931744711475	-586.0938227422118	-619.0790001099001	3789.955245255561	-384.078957629425	-397.0722431271023	3978.2214142069515	-345.21414041009047	-127.17579063720909	3940.104424228854	-242.32729007474842	13.07939703140902	3850.440966899475	-247.74131634997767	25.78496006586357	3876.3174311678117	-202.31053963630652	3.525125503091686	3978.310331000977	-216.488021467837
165	2.75	-65.02863329430848	3762.584848465083	-545.9319692687923	294.61581993745483	3949.2367592561764	-527.0532493980071	638.8016276166235	4152.430433284134	-532.0251483951704	694.6732972706137	4013.8653602480767	-455.67947937782156	683.1726574884368	3961.0033457085137	-501.06987134559034	673.3272590837418	4191.733297288665	-530.2454500502257	-102.03301952823614	3905.8675553013954	-364.25250709579444	234.04442367375918	3973.103801994915	-365.9318074377002	625.503984166194	4275.626135437214	-471.56825902852006	670.8968587705258	3995.261718696797	-354.42919239005437	669.1783937270599	4120.796232595357	-343.72068552940374	672.4203848189428	4323.662894142514	-500.2481624606355	-677.6700159030324	3680.016155553655	-512.5258321164891	-916.4940253749045	3540.360710077456	-431.94002688947	-783.2656872411521	3576.6981021476304	-408.57862310771213	-562.2173883501318	3687.814603543491	-680.794405507997	-287.1229296411724	3666.2382215519856	-687.8256001359612	-25.83926816971063	3642.6511138523438	-614.317356468807	91.65982504138213	3741.4007364265667	-561.2640222572869	117.65694279577319	3692.287660520591	-554.676726023816	100.65192315024568	3651.3112928989794	-586.0346432528479	-619.0692046788115	3790.264007693765	-384.1349658404421	-397.054604211661	3978.102453488161	-345.26257049145954	-127.22908517218048	3940.22943956294	-242.34303028770807	13.218900936416327	3851.044165122426	-248.0154481522213	20.686230703665494	3876.7150609549376	-202.8551653487961	3.46662416227918	3978.5429762764666	-216.4804008077594
166	2.7666666666666666	-65.1409077711754	3762.1841140809606	-545.7112287027247	286.5388879553132	3928.188680483873	-512.4333753138253	638.8310533477312	4151.893392787081	-531.9296679787373	694.8148268330964	4013.736922187378	-455.65744929754123	689.7451273481374	3965.3669481542943	-503.65932720436274	675.8997283653844	4165.566593178827	-526.0914812543687	-102.04956728850094	3905.7279838478275	-364.1323210592104	229.7017862761153	3972.908161444597	-371.82604705012994	627.0124264118648	4256.8788179720705	-458.5950059242572	671.4227087930909	3994.929495721305	-354.6551101192803	682.7269095374314	4128.219331805167	-344.911520339005	672.3911451640678	4322.4438523140625	-500.1559623607331	-677.6748224101806	3679.986714773193	-512.5240207133992	-916.5611516169181	3540.3680397009052	-432.0309956749406	-788.019853968689	3575.6220937154444	-408.6761867489202	-560.4179533944665	3670.6435337130756	-666.1929249599181	-287.24639791582047	3666.360781238901	-687.9578482551444	-25.8886272067382	3642.644109333759	-614.3890055731208	91.53076078802779	3741.527713108537	-561.278926389348	117.64317139466232	3692.7604760792783	-554.9583299694425	105.4989071552544	3628.741789088255	-579.0976911442159	-619.0202606729129	3790.201621256042	-384.0701929794569	-392.0740411530924	3981.772245988187	-346.54787943099205	-127.96176307351097	3966.969063285704	-246.90144702654862	14.032677076203107	3854.257727831652	-255.30227482622394	20.785281080785143	3876.3268674703722	-202.86242607525972	3.519603005369557	3978.843717873113	-216.49615619987586
